<svg xmlns="http://www.w3.org/2000/svg" xmlns:xlink="http://www.w3.org/1999/xlink" width="150" zoomAndPan="magnify" viewBox="0 0 112.5 112.499997" height="150" preserveAspectRatio="xMidYMid meet" version="1.0"><defs><clipPath id="5102da016c"><path d="M 53 86 L 104.679688 86 L 104.679688 112 L 53 112 Z M 53 86 " clip-rule="nonzero"/></clipPath></defs><g clip-path="url(#5102da016c)"><path fill="#95de23" d="M 53.355469 111.277344 C 58.019531 102.339844 65.691406 95.003906 74.832031 90.746094 C 83.972656 86.488281 94.523438 85.332031 104.367188 87.507812 C 92.300781 102.636719 72.691406 112 53.355469 111.277344 " fill-opacity="1" fill-rule="nonzero"/></g><path fill="#95de23" d="M 37.847656 104.742188 C 43.28125 90.1875 43.777344 73.839844 39.238281 58.984375 C 34.703125 44.125 25.15625 30.847656 12.519531 21.8125 C 7.625 51.222656 17.097656 83.335938 37.847656 104.742188 " fill-opacity="1" fill-rule="nonzero"/><path fill="#95de23" d="M 48.871094 104.308594 C 43.519531 84.867188 44.757812 63.671875 52.335938 44.984375 C 59.910156 26.296875 73.78125 10.226562 91.160156 -0.00390625 C 94.105469 38.585938 78.164062 79.019531 48.871094 104.308594 " fill-opacity="1" fill-rule="nonzero"/></svg>